<svg data-v-0dd9719b="" version="1.0" xmlns="http://www.w3.org/2000/svg" xmlns:xlink="http://www.w3.org/1999/xlink" width="100%" height="100%" viewBox="0 0 340.000000 250.000000" preserveAspectRatio="xMidYMid meet" color-interpolation-filters="sRGB" style="margin: auto;"> <rect data-v-0dd9719b="" x="0" y="0" width="100%" height="100%" fill="#fff" fill-opacity="1" class="background"></rect> <rect data-v-0dd9719b="" x="0" y="0" width="100%" height="100%" fill="url(#watermark)" fill-opacity="1" class="watermarklayer"></rect> <g data-v-0dd9719b="" fill="#ee87b4" class="icon-text-wrapper icon-svg-group iconsvg" transform="translate(80.85499584674835,92.95341491699219)"><g class="iconsvg-imagesvg" transform="translate(59.14500427246094,0)"><g><rect fill="#ee87b4" fill-opacity="0" stroke-width="2" x="0" y="0" width="60" height="33.36317483971775" class="image-rect"></rect> <svg x="0" y="0" width="60" height="33.36317483971775" filtersec="colorsb4706796128" class="image-svg-svg primary" style="overflow: visible;"><svg xmlns="http://www.w3.org/2000/svg" viewBox="0.0015239715576171875 -0.0013937894254922867 129.37847900390625 71.94139862060547"><g><g><path d="M92 7.7c3.08-.4 6.16-.65 9.25-.75 7.52-.2 19.3.86 21.8 7.4 2.77 7.26-6 16.18-10.7 20.49a106.76 106.76 0 0 1-20.84 14.8A7.91 7.91 0 0 1 94 53.19a117.35 117.35 0 0 0 21.76-14.6c6.77-5.88 16.5-16.54 12.81-26.54S110.33.14 101.27 0a118.66 118.66 0 0 0-31.13 4C76.89 4 86.73 2.51 92 7.7zM28.31 25.22a1.39 1.39 0 0 0-.78.26c-6.68 4.15-15.81 10.65-21.7 18.09C2.06 48.33-1.63 55.1.76 61.3c3.63 9.39 17.34 10.62 25.81 10.64a115.57 115.57 0 0 0 28.08-3.71h-2A26.64 26.64 0 0 1 44.33 67a103.39 103.39 0 0 1-17.77 1.89c-6.72.11-20.2-.77-23.26-8.59-2-5.09 1.44-11 4.47-14.94 5.66-7.26 13.31-12.9 21.07-17.73a1.3 1.3 0 0 0 .72-1.15 1.26 1.26 0 0 0-1.26-1.26z" fill="#a06"></path><path d="M53.54 65.57q-18.15 0-18.25-19V25.72q.1-19 18.25-19h26.73c13.79-.13 13.79 16.7 0 16.57H54a2.17 2.17 0 0 0-2.47 2.17v21.07A2.18 2.18 0 0 0 54 49h26.27c13.76 0 13.81 16.7 0 16.57z" fill="#ee87b4"></path></g></g></svg></svg> <!----></g></g> <g transform="translate(0,40.36317443847656)"><g data-gra="path-name" fill-rule="" class="tp-name iconsvg-namesvg"><g transform="scale(1)"><g><path d="M18.33-7.34Q17.56-5.26 15.63-3.8 13.71-2.35 11.46-2.35L11.46-2.35Q8.91-2.35 7.26-3.72 5.6-5.09 5.03-7.19 4.46-9.28 4.46-11.6L4.46-11.6Q4.46-14.08 5.14-16.14 5.83-18.2 7.47-19.44 9.12-20.68 11.36-20.68L11.36-20.68Q13.67-20.68 15.42-19.47 17.16-18.26 17.93-16.59L17.93-16.59 20.54-17.26Q19.1-20.34 16.91-21.78 14.71-23.22 11.06-23.22L11.06-23.22Q8.04-23.22 5.76-21.65 3.49-20.07 2.25-17.38 1.01-14.68 1.01-11.39L1.01-11.39Q1.01-8.14 2.21-5.51 3.42-2.88 5.83-1.32 8.24 0.23 11.7 0.23L11.7 0.23Q15.15 0.23 17.53-1.56 19.91-3.35 20.91-6.67L20.91-6.67 18.33-7.34ZM26.11 0Q26.31 0 26.46-0.15 26.61-0.3 26.61-0.5L26.61-0.5 26.61-10.76 36.8-10.76 36.8 0 39.65 0Q39.85 0 40-0.15 40.15-0.3 40.15-0.5L40.15-0.5 40.15-23.46 36.8-23.46 36.8-13.51 26.61-13.51 26.61-23.46 23.26-23.46 23.26 0 26.11 0ZM59.62 0Q59.82 0 59.97-0.15 60.12-0.3 60.12-0.5L60.12-0.5 60.12-2.78 46.78-2.78 46.78-10.76 58.92-10.76Q59.12-10.76 59.27-10.91 59.42-11.06 59.42-11.26L59.42-11.26 59.42-13.51 46.78-13.51 46.72-20.71 59.08-20.71Q59.29-20.71 59.44-20.86 59.59-21.01 59.59-21.21L59.59-21.21 59.59-23.46 43.37-23.46 43.37 0 59.62 0ZM67.6 0Q67.8 0 67.95-0.15 68.1-0.3 68.1-0.5L68.1-0.5 68.23-18.16 79.76 0 82.34 0Q82.54 0 82.69-0.15 82.84-0.3 82.84-0.5L82.84-0.5 82.84-23.46 79.43-23.46 79.43-5.16 67.9-23.46 64.81-23.46 64.81 0 67.6 0ZM107.44-11.63L112.6-11.66Q114.35-11.7 117.63-11.7L117.63-11.7 117.63-9.02Q117.63-6.84 116.37-4.68 115.12-2.51 112.91-1.12 110.69 0.27 107.91 0.27L107.91 0.27Q104.6 0.27 102.25-1.44 99.9-3.15 98.71-5.92 97.52-8.68 97.52-11.8L97.52-11.8Q97.52-14.81 98.68-17.46 99.84-20.11 102.12-21.7 104.39-23.29 107.58-23.19L107.58-23.19Q114.72-23.19 117.36-16.42L117.36-16.42 114.75-15.75Q113.88-17.13 112.87-18.2 111.87-19.27 110.68-19.79 109.49-20.31 107.58-20.31L107.58-20.31Q105.43-20.31 103.86-19.04 102.28-17.76 101.63-15.7 100.98-13.64 100.98-11.33L100.98-11.33Q100.98-9.05 101.63-7.04 102.28-5.03 103.98-3.8 105.67-2.58 108.11-2.58L108.11-2.58Q110.83-2.58 112.59-4.34 114.35-6.1 114.88-8.98L114.88-8.98 107.44-8.98 107.44-11.63ZM124.57 0.13Q124.84 0.13 124.95 0.02 125.07-0.1 125.07-0.37L125.07-0.37 125.07-9.48Q125.07-12.13 126.04-13.77 127.02-15.42 128.83-15.99L128.83-15.99Q129.96-16.35 131.61-15.62L131.61-15.62 131.87-17.7Q130.23-18.7 128.86-18.7L128.86-18.7Q127.62-18.7 126.63-17.9 125.64-17.09 124.77-15.45L124.77-15.45 124.77-18.8 121.99-18.8 121.99 0.13 124.57 0.13ZM146.62-6.27Q145.51-4.29 144.19-3.62 142.87-2.95 141.49-2.95L141.49-2.95Q140.09-2.95 138.85-3.62 137.61-4.29 136.83-5.56 136.06-6.84 136.06-8.55L136.06-8.55 149.6-8.55Q149.64-8.91 149.64-9.38L149.64-9.38Q149.64-12.37 148.46-14.49 147.29-16.62 145.4-17.7 143.5-18.77 141.36-18.77L141.36-18.77Q139.18-18.77 137.24-17.66 135.29-16.56 134.09-14.39 132.88-12.23 132.88-9.22L132.88-9.22Q132.88-6.33 134.12-4.24 135.36-2.14 137.37-1.07 139.38 0 141.63 0L141.63 0Q144.21 0 146.34-1.44 148.46-2.88 149.37-5.6L149.37-5.6 146.62-6.27ZM136.23-11.06Q136.33-12.67 137.09-13.84 137.84-15.01 139-15.63 140.15-16.25 141.39-16.25L141.39-16.25Q143.3-16.25 144.73-14.91 146.15-13.57 146.35-11.06L146.35-11.06 136.23-11.06ZM165.09-2.65Q165.19-1.37 165.62-0.4L165.62-0.4 168.74-0.4Q168.07-1.58 167.8-3.49L167.8-3.49Q167.57-5.09 167.57-7.54L167.57-7.54 167.57-9.35Q167.57-10.86 167.5-12L167.5-12Q167.4-13.94 166.76-15.48L166.76-15.48Q166.16-16.92 164.72-17.83L164.72-17.83Q162.94-18.9 160.06-18.9L160.06-18.9Q157.55-18.9 155.7-17.83L155.7-17.83Q153.66-16.62 152.95-13.84L152.95-13.84 156.04-13.84Q156.57-15.28 157.71-15.82L157.71-15.82Q158.89-16.32 160.63-16.32L160.63-16.32Q162.24-16.32 163.51-15.45L163.51-15.45Q164.82-14.54 164.82-12.63L164.82-12.63 164.82-11.83Q163.68-11.46 161-11.06L161-11.06Q158.48-10.69 156.67-10.19L156.67-10.19Q155.03-9.75 153.83-8.55L153.83-8.55Q152.65-7.37 152.65-5.16L152.65-5.16Q152.65-2.58 154.43-1.27L154.43-1.27Q156.21 0.03 158.65 0.03L158.65 0.03Q160.26 0.03 161.9-0.57L161.9-0.57Q163.34-1.11 165.09-2.65L165.09-2.65ZM164.82-8.34Q164.82-7.61 164.75-6.6L164.75-6.6Q164.65-5.86 164.35-5.26L164.35-5.26Q163.68-3.89 162.27-3.15L162.27-3.15Q160.8-2.38 159.29-2.38L159.29-2.38Q157.78-2.38 156.84-3.12L156.84-3.12Q155.84-3.89 155.84-5.23L155.84-5.23Q155.84-6.4 156.67-7.14L156.67-7.14Q157.48-7.84 158.65-8.14L158.65-8.14Q159.46-8.34 161.67-8.71L161.67-8.71 163.44-9.02Q164.25-9.15 164.82-9.42L164.82-9.42 164.82-8.34ZM179.3-2.85Q178.19-2.68 177.59-2.68L177.59-2.68Q176.68-2.68 176.3-3.23 175.91-3.79 175.91-5.33L175.91-5.33 175.91-16.29 178.36-16.29Q178.63-16.29 178.74-16.4 178.86-16.52 178.86-16.79L178.86-16.79 178.86-18.7 175.91-18.7 175.91-22.29 172.93-22.29 172.93-18.7 170.75-18.7 170.75-16.29 172.93-16.29 172.93-5.5Q172.93-2.58 173.87-1.17 174.81 0.23 177.15 0.07L177.15 0.07Q178.09 0 179.3-0.87L179.3-0.87 179.3-2.85Z" transform="translate(-1.0099999904632568, 23.459999084472656)"></path></g> <!----> <!----> <!----> <!----> <!----> <!----> <!----></g></g> <!----></g></g><defs v-gra="od"></defs></svg>